<svg width="113" height="114" viewBox="0 0 113 114" fill="none" xmlns="http://www.w3.org/2000/svg">
<path d="M106.155 16.68C96.8966 11.15 81.6297 24.47 77.7505 28.1C78.533 25.7979 79.8887 23.733 81.6897 22.1C81.7319 22.0669 81.7657 22.0243 81.7883 21.9756C81.8109 21.9269 81.8217 21.8736 81.8197 21.82C81.8198 21.7684 81.8071 21.7176 81.7826 21.6722C81.7582 21.6268 81.7228 21.5883 81.6797 21.56C80.8221 20.9802 79.8152 20.6607 78.7803 20.64C79.3129 19.9837 79.9972 19.4669 80.774 19.1342C81.5509 18.8014 82.397 18.6627 83.2394 18.73C83.3015 18.7392 83.365 18.7299 83.4219 18.7032C83.4788 18.6765 83.5266 18.6337 83.5593 18.58C83.5909 18.5253 83.6076 18.4632 83.6076 18.4C83.6076 18.3368 83.5909 18.2747 83.5593 18.22C83.1506 17.6016 82.586 17.1021 81.9224 16.7719C81.2588 16.4418 80.5198 16.2928 79.7801 16.34C81.0898 15.34 84.0592 14.98 85.259 14.94C85.323 14.9394 85.3854 14.9201 85.4387 14.8846C85.4919 14.8491 85.5337 14.7988 85.5589 14.74C85.5835 14.6827 85.5918 14.6197 85.583 14.558C85.5742 14.4963 85.5485 14.4381 85.5089 14.39C84.3511 13.0431 82.7098 12.2061 80.9399 12.06C82.5995 10.06 87.5185 9.45998 87.5685 9.44998C87.6387 9.44459 87.7052 9.41621 87.7576 9.3692C87.81 9.3222 87.8455 9.25921 87.8585 9.19C87.8749 9.15127 87.8836 9.10965 87.8839 9.06757C87.8843 9.02548 87.8764 8.98375 87.8606 8.94473C87.8448 8.90572 87.8215 8.87019 87.7919 8.84021C87.7624 8.81023 87.7272 8.78636 87.6885 8.76999C86.1281 7.77614 84.359 7.15667 82.5195 6.95999C84.5191 4.47999 90.8778 2.95999 90.9478 2.95999C91.0156 2.94411 91.0769 2.90776 91.1234 2.8559C91.1699 2.80403 91.1993 2.73913 91.2077 2.66998C91.2156 2.60176 91.2026 2.53277 91.1705 2.47208C91.1384 2.41139 91.0886 2.36185 91.0278 2.32999C86.7687 0.109987 81.5698 2.26999 81.3298 2.32999C75.331 5.32999 75.0611 15.28 75.691 22.17C73.3314 13.8 68.2025 0.69 59.1344 0C58.8344 0 51.7659 -2.3365e-05 47.8867 4.56998C47.8475 4.62559 47.8265 4.69196 47.8265 4.75998C47.8265 4.828 47.8475 4.89436 47.8867 4.94998C47.9217 5.00977 47.9735 5.05784 48.0358 5.0881C48.0981 5.11837 48.168 5.12947 48.2366 5.12C48.3266 5.12 56.7749 3.74998 60.2342 5.84998C58.1239 6.9444 56.3094 8.53285 54.9452 10.48C54.9044 10.5387 54.8825 10.6085 54.8825 10.68C54.8825 10.7515 54.9044 10.8213 54.9452 10.88C54.9859 10.9372 55.0433 10.9804 55.1096 11.0037C55.1758 11.027 55.2476 11.0292 55.3152 11.01C55.3851 11.01 61.6539 9.25999 64.5333 10.96C63.5195 11.4515 62.6142 12.1409 61.8708 12.9875C61.1273 13.8342 60.5606 14.821 60.2042 15.89C60.1835 15.9508 60.181 16.0162 60.197 16.0784C60.213 16.1406 60.2467 16.1967 60.2941 16.24C60.3389 16.2851 60.3961 16.3158 60.4584 16.3283C60.5208 16.3408 60.5854 16.3344 60.6441 16.31C62.1338 15.76 66.013 14.67 68.0125 15.41C67.0919 15.6779 66.2619 16.192 65.6118 16.8968C64.9617 17.6017 64.5162 18.4706 64.3233 19.41C64.3136 19.4726 64.3216 19.5366 64.3463 19.5949C64.371 19.6532 64.4115 19.7035 64.4633 19.74C64.518 19.7716 64.5801 19.7882 64.6432 19.7882C64.7064 19.7882 64.7685 19.7716 64.8232 19.74C65.8121 19.2307 66.9138 18.9801 68.0257 19.0116C69.1376 19.0431 70.2233 19.3556 71.1819 19.92C69.9336 20.4256 68.8648 21.2927 68.1125 22.41C68.088 22.4562 68.0752 22.5077 68.0752 22.56C68.0752 22.6123 68.088 22.6638 68.1125 22.71C68.131 22.7593 68.1604 22.8038 68.1985 22.8401C68.2366 22.8765 68.2824 22.9038 68.3325 22.92C71.2753 23.9759 73.8935 25.7781 75.9309 28.15C70.9919 26.24 54.2354 20.49 48.3566 28.15C48.2166 28.36 44.9073 33.35 46.357 38.24C46.377 38.3056 46.4163 38.3636 46.4698 38.4064C46.5233 38.4493 46.5886 38.4749 46.657 38.48H46.707C46.7669 38.4736 46.8241 38.4518 46.8732 38.4168C46.9222 38.3817 46.9614 38.3346 46.9869 38.28C46.9869 38.21 49.9063 31.77 52.9257 30.28C52.7456 32.2525 53.0333 34.2396 53.7655 36.08C53.7887 36.1458 53.8322 36.2025 53.8897 36.242C53.9472 36.2816 54.0157 36.3019 54.0854 36.3C54.1573 36.2989 54.2269 36.2751 54.2844 36.232C54.3419 36.1889 54.3842 36.1287 54.4053 36.06C54.4053 36.01 56.055 30.93 58.5145 29.62C58.405 30.5555 58.4811 31.5034 58.7384 32.4094C58.9957 33.3155 59.4293 34.1618 60.0142 34.9C60.0543 34.949 60.1077 34.9855 60.168 35.005C60.2283 35.0245 60.2929 35.0262 60.3541 35.01C60.4157 34.9975 60.4723 34.9671 60.5168 34.9226C60.5612 34.8782 60.5916 34.8216 60.6041 34.76C60.894 33.5 61.8638 30.4 63.2335 29.26C63.0246 30.0276 63.0237 30.837 63.231 31.605C63.4384 32.373 63.8464 33.0719 64.4133 33.63C64.46 33.672 64.5171 33.7006 64.5787 33.713C64.6402 33.7253 64.704 33.7208 64.7632 33.7C64.8229 33.6765 64.8751 33.637 64.9139 33.5858C64.9526 33.5347 64.9766 33.4739 64.9832 33.41C65.0885 32.5062 65.412 31.6416 65.9258 30.8907C66.4396 30.1399 67.1283 29.5253 67.9325 29.1C67.7334 30.192 67.8586 31.3184 68.2925 32.34C68.3125 32.388 68.3439 32.4303 68.384 32.4634C68.424 32.4965 68.4715 32.5194 68.5224 32.53C68.5729 32.5411 68.6253 32.5406 68.6755 32.5285C68.7257 32.5164 68.7725 32.4929 68.8124 32.46C69.6023 31.8403 70.4653 31.3197 71.3818 30.91C70.9815 31.2794 70.6707 31.7354 70.4732 32.2432C70.2757 32.7509 70.1966 33.2971 70.2421 33.84C70.3235 34.7932 70.7799 35.6752 71.511 36.2921C72.2421 36.9089 73.1882 37.2103 74.1413 37.13C74.9248 37.0612 75.6633 36.7341 76.2408 36.2C77.0907 38.42 80.34 49.06 74.8411 70.2C67.4227 72.43 66.2429 74.77 65.2131 76.84C64.8791 77.5921 64.4343 78.2899 63.8934 78.91C63.3707 79.649 63.0616 80.5177 62.9999 81.4209C62.9381 82.324 63.1262 83.2267 63.5435 84.03C64.9132 86.89 69.4223 90.03 83.0794 88.88C92.4775 88.08 98.2663 85.88 100.286 82.34C100.696 81.6619 100.942 80.8975 101.004 80.1076C101.067 79.3177 100.944 78.5241 100.646 77.79C98.6462 73.01 93.5273 69.14 88.6483 68.67C87.8684 60.96 85.4789 42.89 79.8201 35.67C80.0594 35.695 80.3007 35.695 80.54 35.67C81.4938 35.5861 82.3756 35.1274 82.9921 34.3946C83.6086 33.6617 83.9097 32.7144 83.8293 31.76C83.7671 31.0427 83.4908 30.3607 83.0361 29.8026C82.5815 29.2444 81.9695 28.8358 81.2798 28.63C83.2057 28.4626 85.1461 28.6422 87.0086 29.16C87.0538 29.1821 87.1033 29.1935 87.1536 29.1935C87.2038 29.1935 87.2534 29.1821 87.2985 29.16C87.3429 29.1322 87.3798 29.094 87.4059 29.0487C87.4321 29.0033 87.4467 28.9523 87.4485 28.9C87.4737 27.6563 87.1254 26.4337 86.4487 25.39C87.4647 25.4859 88.4408 25.8332 89.289 26.4005C90.1373 26.9679 90.831 27.7375 91.3077 28.64C91.3354 28.6962 91.378 28.7437 91.4309 28.7773C91.4839 28.8108 91.545 28.829 91.6077 28.83C91.6703 28.829 91.7315 28.8108 91.7844 28.7773C91.8373 28.7437 91.88 28.6962 91.9076 28.64C92.2705 27.8305 92.4063 26.9376 92.3006 26.0568C92.195 25.176 91.8517 24.3406 91.3077 23.64C93.1873 24.19 95.5069 27.04 96.3067 28.24C96.341 28.2896 96.3876 28.3295 96.4419 28.3557C96.4963 28.382 96.5564 28.3938 96.6166 28.39C96.6801 28.3806 96.7394 28.3528 96.7874 28.3102C96.8353 28.2676 96.8698 28.2119 96.8866 28.15C97.1828 27.1583 97.2805 26.1178 97.1742 25.0882C97.0678 24.0587 96.7594 23.0602 96.2667 22.15C99.3361 22.45 103.115 27.06 103.155 27.15C103.2 27.2045 103.26 27.2442 103.328 27.2638C103.396 27.2835 103.468 27.2821 103.535 27.26C103.604 27.2377 103.663 27.1931 103.702 27.1332C103.742 27.0733 103.761 27.0017 103.755 26.93C103.764 24.7374 103.249 22.5743 102.255 20.62C105.965 20.9 111.594 26.4 111.654 26.46C111.703 26.5085 111.766 26.5403 111.834 26.5511C111.902 26.5618 111.972 26.551 112.033 26.52C112.095 26.4914 112.147 26.4443 112.181 26.3852C112.215 26.3261 112.23 26.2579 112.223 26.19C111.794 20.62 106.405 16.85 106.155 16.68ZM88.2683 72.29C88.1375 73.3407 87.7068 74.3314 87.0277 75.1437C86.3486 75.9559 85.4499 76.5553 84.4391 76.87C81.5997 77.87 77.5906 77.21 75.691 75.43C75.304 75.1157 75.0148 74.6976 74.8572 74.2246C74.6996 73.7517 74.6801 73.2436 74.8011 72.76L75.0411 71.88C77.5002 72.7941 80.1193 73.1989 82.7395 73.07C84.7804 72.9877 86.7108 72.1208 88.1284 70.65C88.2184 71.56 88.2583 72.14 88.2683 72.29ZM88.0384 69.69C84.6091 74.3 76.7807 71.79 75.211 71.22C75.6709 69.52 76.0742 67.8866 76.4208 66.32C78.1877 67.411 80.2623 67.8956 82.3296 67.7C84.2033 67.5011 86.0113 66.8972 87.6285 65.93C87.7985 67.39 87.9384 68.67 88.0384 69.69ZM87.5385 65.2C81.5397 68.8 77.4206 66.2 76.5408 65.61C76.8807 64.04 77.1607 62.54 77.4106 61.11C79.0226 61.6306 80.7207 61.831 82.4096 61.7C83.9539 61.5775 85.4524 61.1166 86.7986 60.35C87.1286 62.08 87.3485 63.77 87.5385 65.2ZM77.5406 60.43C77.7905 58.93 77.9905 57.49 78.1405 56.14C79.4633 56.624 80.8763 56.8117 82.2796 56.69C83.5908 56.5788 84.8627 56.1866 86.0088 55.54C86.2788 56.93 86.5087 58.3 86.7187 59.63C85.3318 60.3932 83.8009 60.8586 82.224 60.9963C80.6471 61.1341 79.0587 60.9412 77.5606 60.43H77.5406ZM78.2104 55.43C78.3404 54.15 78.4404 52.93 78.5004 51.78C79.6299 52.1552 80.8236 52.298 82.0097 52.2C83.1076 52.1022 84.1698 51.7605 85.119 51.2C85.3889 52.39 85.6489 53.6 85.8788 54.79C84.7323 55.4597 83.4509 55.8656 82.1279 55.978C80.8049 56.0904 79.4735 55.9067 78.2304 55.44L78.2104 55.43ZM78.5404 51.07C78.5404 50 78.6003 48.99 78.5903 48.07C79.3288 48.2044 80.0818 48.2414 80.8299 48.18C81.9842 48.1021 83.0931 47.7 84.0292 47.02C84.3592 48.18 84.6691 49.37 84.9491 50.57C83.9849 51.1134 82.914 51.4405 81.8108 51.5286C80.7076 51.6167 79.5985 51.4636 78.5604 51.08L78.5404 51.07ZM78.5903 47.34C78.5903 46.15 78.5104 45.06 78.4204 44.06C78.9579 44.1817 79.5111 44.2188 80.06 44.17C81.0508 44.0806 82.0015 43.7361 82.8195 43.17C83.1694 44.17 83.5093 45.17 83.8193 46.26C83.0754 46.7956 82.2275 47.1694 81.3303 47.3571C80.4331 47.5449 79.5066 47.5424 78.6104 47.35L78.5903 47.34ZM78.3604 43.34C78.2738 42.5 78.1738 41.73 78.0605 41.03C78.3763 41.0609 78.6944 41.0609 79.0103 41.03C79.9334 40.9656 80.8137 40.6162 81.5297 40.03C81.8997 40.82 82.2396 41.66 82.5795 42.53C81.9889 42.9788 81.3032 43.2861 80.5753 43.4283C79.8473 43.5704 79.0964 43.5436 78.3804 43.35L78.3604 43.34ZM77.9505 40.34C77.8005 39.54 77.6505 38.85 77.5006 38.26C77.7067 38.28 77.9143 38.28 78.1204 38.26C78.875 38.2083 79.5854 37.885 80.12 37.35C80.5373 37.9946 80.9179 38.6624 81.2598 39.35C80.8204 39.7508 80.2971 40.0486 79.7281 40.2216C79.159 40.3946 78.5586 40.4384 77.9705 40.35L77.9505 40.34ZM77.3006 37.54C77.1106 36.88 76.9407 36.39 76.8107 36.05H77.2406C77.7709 36.0013 78.2835 35.8338 78.7403 35.56C79.0969 35.9435 79.4307 36.3475 79.7401 36.77C79.4415 37.102 79.0604 37.3491 78.6354 37.4861C78.2105 37.6231 77.7569 37.6451 77.3206 37.55L77.3006 37.54ZM78.6104 34.85C78.2822 35.075 77.9125 35.2324 77.5228 35.3131C77.1332 35.3938 76.7314 35.3961 76.3408 35.32C75.722 35.1929 75.1608 34.8691 74.741 34.397C74.3212 33.9248 74.0652 33.3295 74.0113 32.7C73.9769 32.3221 74.0175 31.9412 74.1308 31.5791C74.244 31.217 74.4277 30.8809 74.6712 30.59C74.9152 30.287 75.2183 30.0367 75.5621 29.8545C75.9058 29.6723 76.283 29.5619 76.6708 29.53H77.1007C77.4716 29.5487 77.8351 29.6404 78.1705 29.8C78.6345 30.0188 79.033 30.3556 79.326 30.7768C79.619 31.198 79.7963 31.6887 79.8401 32.2C79.8909 32.7107 79.8057 33.2257 79.5933 33.6929C79.3808 34.1601 79.0486 34.5627 78.6303 34.86L78.6104 34.85ZM81.6097 3.01999C82.8923 2.52295 84.2387 2.20986 85.6089 2.09C87.0408 1.94115 88.4879 2.1084 89.848 2.57999C87.7585 3.15999 82.8495 4.74 81.6097 7.16C81.5778 7.21095 81.5608 7.26985 81.5608 7.32999C81.5608 7.39012 81.5778 7.44905 81.6097 7.5C81.641 7.55031 81.6855 7.59095 81.7385 7.61743C81.7914 7.64391 81.8507 7.6552 81.9097 7.64999C83.5086 7.68824 85.0738 8.1174 86.4687 8.89999C84.6891 9.22999 81.0399 10.13 79.9801 12.19C79.9511 12.2402 79.9359 12.2971 79.9359 12.355C79.9359 12.4129 79.9511 12.4698 79.9801 12.52C80.0108 12.5714 80.055 12.6134 80.1079 12.6416C80.1607 12.6698 80.2202 12.6831 80.28 12.68C81.8183 12.6871 83.3009 13.2561 84.4492 14.28C82.9295 14.41 79.5002 14.9 78.6203 16.57C78.5867 16.624 78.5688 16.6864 78.5688 16.75C78.5688 16.8136 78.5867 16.876 78.6203 16.93C78.6561 16.9847 78.7082 17.0268 78.7692 17.0501C78.8303 17.0735 78.8971 17.0769 78.9603 17.06C79.5841 16.9346 80.2289 16.96 80.841 17.1339C81.453 17.3078 82.0148 17.6253 82.4796 18.06C81.5174 18.077 80.5758 18.3417 79.7457 18.8286C78.9156 19.3156 78.225 20.0083 77.7405 20.84C77.7088 20.8929 77.692 20.9533 77.692 21.015C77.692 21.0766 77.7088 21.1371 77.7405 21.19C77.775 21.2419 77.823 21.2834 77.8795 21.3098C77.9359 21.3363 77.9985 21.3467 78.0605 21.34C79.0053 21.2747 79.9505 21.461 80.7999 21.88C79.1017 23.5227 77.811 25.5397 77.0307 27.77C76.3208 22.97 74.1013 6.82 81.6897 3.03L81.6097 3.01999ZM68.8424 22.52C69.6509 21.56 70.71 20.8434 71.9017 20.45C71.9617 20.4328 72.0159 20.3995 72.0582 20.3537C72.1005 20.3078 72.1294 20.2512 72.1417 20.19C72.1514 20.1284 72.1444 20.0653 72.1216 20.0073C72.0987 19.9493 72.0608 19.8984 72.0117 19.86C71.0222 19.118 69.8569 18.6458 68.63 18.4898C67.4032 18.3338 66.1569 18.4993 65.0132 18.97C65.823 16.47 68.6724 15.97 68.8024 15.91C68.8663 15.9018 68.9263 15.8745 68.9744 15.8317C69.0226 15.7889 69.0567 15.7325 69.0723 15.67C69.087 15.6071 69.0846 15.5415 69.0652 15.4799C69.0459 15.4183 69.0104 15.3631 68.9623 15.32C67.1027 13.76 62.6736 14.97 60.964 15.52C61.801 13.665 63.3133 12.1989 65.1931 11.42C65.25 11.4007 65.3005 11.3664 65.3392 11.3206C65.378 11.2747 65.4035 11.2192 65.4131 11.16C65.4233 11.1017 65.4186 11.0418 65.3993 10.9858C65.3801 10.9298 65.347 10.8797 65.3031 10.84C63.0236 8.89 58.0646 9.72 55.965 10.19C57.2571 8.50248 58.9566 7.17083 60.904 6.31998C60.9603 6.29981 61.0103 6.26516 61.0489 6.21951C61.0875 6.17386 61.1134 6.11885 61.124 6.06C61.1362 6.0017 61.1325 5.94117 61.1131 5.88483C61.0937 5.82849 61.0595 5.77843 61.014 5.73999C58.3046 3.45999 51.516 4.06997 49.0165 4.37997C52.7957 0.719974 59.0144 0.73999 59.0744 0.73999C69.9921 1.57999 75.1611 22.33 76.3408 27.86C74.3269 25.501 71.7662 23.6711 68.8824 22.53L68.8424 22.52ZM68.6924 31.77C68.427 30.7876 68.427 29.7524 68.6924 28.77C68.711 28.7106 68.7124 28.6472 68.6965 28.587C68.6805 28.5268 68.6479 28.4724 68.6024 28.43C68.5589 28.3862 68.504 28.3555 68.4439 28.3413C68.3838 28.3272 68.321 28.3302 68.2625 28.35C67.2934 28.6954 66.4295 29.2843 65.7536 30.0602C65.0778 30.836 64.6128 31.7726 64.4033 32.78C64.0331 32.1973 63.8098 31.5336 63.7523 30.8456C63.6949 30.1577 63.805 29.466 64.0734 28.83C64.1073 28.778 64.1254 28.7172 64.1254 28.655C64.1254 28.5928 64.1073 28.532 64.0734 28.48C64.0305 28.4319 63.9749 28.3969 63.9129 28.3792C63.8509 28.3615 63.7852 28.3618 63.7234 28.38C61.7838 28.95 60.5841 32.5 60.1542 34.03C59.2881 32.612 58.9816 30.9219 59.2943 29.29C59.3067 29.2325 59.3041 29.1729 59.2865 29.1168C59.269 29.0607 59.2373 29.0102 59.1944 28.97C59.1531 28.926 59.0999 28.895 59.0413 28.8808C58.9827 28.8666 58.9213 28.8698 58.8644 28.89C56.4849 29.58 54.7953 33.29 54.1154 35.06C53.5653 33.4188 53.4246 31.668 53.7055 29.96C53.7221 29.902 53.7225 29.8406 53.7066 29.7824C53.6907 29.7242 53.6592 29.6715 53.6155 29.63C53.5729 29.588 53.5197 29.5584 53.4616 29.5443C53.4035 29.5302 53.3427 29.5322 53.2856 29.55C50.4762 30.39 47.8167 35.25 46.8069 37.28C46.0771 32.99 48.8965 28.73 48.9165 28.7C50.6161 26.5 53.3456 25.51 56.4649 25.24C63.5135 24.64 72.4616 27.76 75.7709 29.01C73.2249 29.3515 70.7978 30.2979 68.6924 31.77ZM74.4912 29.92L74.3212 30.08H74.0213L74.4912 29.92ZM70.862 33.92C70.8291 33.5357 70.8724 33.1488 70.9894 32.7813C71.1063 32.4138 71.2947 32.073 71.5436 31.7785C71.7926 31.484 72.0972 31.2416 72.44 31.0651C72.7828 30.8886 73.1571 30.7815 73.5414 30.75H73.8413V30.8C73.8413 30.85 73.7914 30.91 73.7614 30.96C73.693 31.0962 73.6329 31.2365 73.5814 31.38L73.5214 31.59C73.4809 31.7309 73.4509 31.8746 73.4314 32.02V32.21C73.4114 32.4262 73.4114 32.6438 73.4314 32.86C73.4468 33.0421 73.4768 33.2227 73.5214 33.4C73.5214 33.46 73.5214 33.52 73.5714 33.58L73.6914 33.92L73.7813 34.11C73.8287 34.2098 73.8821 34.3067 73.9413 34.4L74.0613 34.59C74.119 34.6775 74.1824 34.761 74.2512 34.84L74.4012 35.01C74.4728 35.0916 74.5496 35.1684 74.6312 35.24L74.8011 35.38C74.8869 35.4522 74.977 35.519 75.0711 35.58L75.241 35.69C75.3851 35.7719 75.5356 35.8421 75.691 35.9C75.2289 36.2925 74.6555 36.5303 74.0513 36.58C73.6595 36.6169 73.2643 36.5748 72.8891 36.4561C72.5139 36.3375 72.1664 36.1446 71.8671 35.8891C71.5678 35.6336 71.3228 35.3205 71.1467 34.9685C70.9706 34.6165 70.867 34.2328 70.842 33.84L70.862 33.92ZM100.006 78.21C100.261 78.8583 100.362 79.5571 100.302 80.2512C100.241 80.9453 100.02 81.6159 99.656 82.21C98.3463 84.49 94.3871 87.42 82.9894 88.4C68.9923 89.59 65.1631 86.11 64.1134 83.92C63.7615 83.2377 63.5983 82.4738 63.6404 81.7073C63.6826 80.9408 63.9287 80.1995 64.3533 79.56C64.9408 78.8919 65.4259 78.1404 65.793 77.33C66.7928 75.33 67.8426 73.27 74.6012 71.16C74.4712 71.67 74.3312 72.16 74.1913 72.7C74.0263 73.3014 74.0406 73.9379 74.2324 74.5313C74.4243 75.1247 74.7852 75.649 75.271 76.04C76.2704 76.8369 77.4171 77.429 78.6454 77.7824C79.8737 78.1359 81.1595 78.2438 82.4296 78.1C83.2062 78.0338 83.9717 77.8727 84.7091 77.62C85.8417 77.2635 86.8476 76.5883 87.6065 75.6749C88.3653 74.7616 88.8451 73.6489 88.9882 72.47V72.4C88.9882 72.19 88.8982 71.15 88.7382 69.54C91.1751 69.9352 93.4767 70.9261 95.4388 72.4246C97.4009 73.923 98.9628 75.8828 99.9859 78.13L100.006 78.21ZM83.1494 32.01C83.1823 32.3935 83.1394 32.7797 83.023 33.1465C82.9067 33.5134 82.7192 33.8538 82.4713 34.1481C82.2234 34.4425 81.9199 34.6852 81.5783 34.8622C81.2366 35.0393 80.8634 35.1473 80.48 35.18C80.1446 35.2125 79.8061 35.1854 79.4802 35.1C79.5402 35.05 79.5802 34.99 79.6401 34.93L79.7201 34.84C79.8101 34.73 79.9001 34.61 79.9801 34.49C80.0501 34.38 80.1101 34.26 80.17 34.15L80.23 34.02C80.23 33.93 80.3 33.84 80.33 33.74C80.36 33.64 80.33 33.64 80.38 33.59C80.4092 33.4982 80.4326 33.4047 80.45 33.31V33.16V32.86C80.4546 32.8134 80.4546 32.7666 80.45 32.72C80.46 32.5702 80.46 32.4198 80.45 32.27C80.45 32.12 80.45 31.98 80.38 31.83C80.31 31.68 80.38 31.74 80.38 31.69C80.38 31.64 80.33 31.5 80.3 31.41L80.24 31.25C80.2076 31.1649 80.1709 31.0814 80.13 31C80.1073 30.948 80.0806 30.8978 80.05 30.85C80.05 30.77 79.9601 30.69 79.9101 30.61L79.8201 30.48C79.7588 30.3867 79.6885 30.2996 79.6102 30.22L79.5501 30.14C79.4551 30.0383 79.355 29.9415 79.2502 29.85L79.1302 29.76L78.9603 29.62C79.2584 29.4895 79.5759 29.4084 79.9001 29.38C80.6654 29.2952 81.4333 29.5153 82.0377 29.9925C82.642 30.4697 83.0342 31.1657 83.1294 31.93L83.1494 32.01ZM101.686 20.01C101.627 20.0154 101.57 20.0357 101.521 20.0689C101.472 20.1021 101.432 20.1472 101.406 20.2C101.377 20.252 101.362 20.3105 101.362 20.37C101.362 20.4295 101.377 20.488 101.406 20.54C102.406 22.2075 102.976 24.0975 103.065 26.04C101.696 24.54 98.4363 21.34 95.6968 21.58C95.6388 21.5841 95.583 21.604 95.5355 21.6375C95.4879 21.671 95.4503 21.7168 95.4269 21.77C95.398 21.822 95.3828 21.8805 95.3828 21.94C95.3828 21.9995 95.398 22.058 95.4269 22.11C96.4084 23.6905 96.7649 25.5805 96.4267 27.41C95.4269 26.05 92.7074 22.82 90.4779 23.02C90.413 23.0229 90.3504 23.0454 90.2986 23.0847C90.2468 23.1241 90.2082 23.1782 90.188 23.24C90.1633 23.2994 90.1578 23.365 90.1721 23.4277C90.1865 23.4904 90.2199 23.5472 90.2679 23.59C90.8101 24.1446 91.207 24.8245 91.4233 25.5695C91.6396 26.3144 91.6686 27.1012 91.5077 27.86C90.8868 26.9115 90.0333 26.1378 89.0288 25.6127C88.0242 25.0875 86.9019 24.8284 85.7689 24.86C85.7057 24.864 85.6447 24.8846 85.5921 24.9197C85.5394 24.9549 85.4969 25.0032 85.4689 25.06C85.4444 25.1173 85.436 25.1803 85.4449 25.242C85.4537 25.3037 85.4793 25.3619 85.5189 25.41C86.2037 26.3319 86.6191 27.4258 86.7187 28.57C84.857 28.1058 82.9307 27.9571 81.0198 28.13C80.094 28.2154 79.1752 28.3658 78.2704 28.58C82.2696 24.93 97.1165 12.15 105.755 17.32C105.805 17.32 110.494 20.63 111.424 25.39C109.684 23.69 104.915 19.68 101.686 19.96V20.01Z" fill="#F7931A" fill-opacity="0.6"/>
<path d="M60.1643 40.68C50.9062 35.15 35.6394 48.47 31.7602 52.1C32.5427 49.7979 33.8983 47.733 35.6994 46.1C35.7416 46.0669 35.7753 46.0243 35.7979 45.9756C35.8205 45.9269 35.8313 45.8736 35.8293 45.82C35.8295 45.7684 35.8167 45.7176 35.7923 45.6722C35.7679 45.6268 35.7325 45.5883 35.6894 45.56C34.8318 44.9802 33.8249 44.6607 32.79 44.64C33.3225 43.9837 34.0068 43.4669 34.7837 43.1342C35.5605 42.8014 36.4066 42.6627 37.249 42.73C37.3112 42.7392 37.3747 42.7299 37.4316 42.7032C37.4885 42.6765 37.5363 42.6337 37.569 42.58C37.6006 42.5253 37.6172 42.4632 37.6172 42.4C37.6172 42.3368 37.6006 42.2747 37.569 42.22C37.1603 41.6016 36.5956 41.1021 35.932 40.7719C35.2684 40.4418 34.5294 40.2928 33.7897 40.34C35.0995 39.34 38.0689 38.98 39.2686 38.94C39.3326 38.9394 39.3951 38.9201 39.4483 38.8846C39.5016 38.8491 39.5433 38.7988 39.5686 38.74C39.5931 38.6827 39.6014 38.6197 39.5926 38.558C39.5838 38.4963 39.5582 38.4381 39.5186 38.39C38.3608 37.0431 36.7194 36.2061 34.9495 36.06C36.6092 34.06 41.5282 33.46 41.5781 33.45C41.6483 33.4446 41.7148 33.4162 41.7672 33.3692C41.8196 33.3222 41.8551 33.2592 41.8681 33.19C41.8846 33.1513 41.8932 33.1097 41.8936 33.0676C41.8939 33.0255 41.886 32.9837 41.8702 32.9447C41.8544 32.9057 41.8311 32.8702 41.8016 32.8402C41.772 32.8102 41.7369 32.7864 41.6981 32.77C40.1377 31.7761 38.3686 31.1567 36.5292 30.96C38.5288 28.48 44.8875 26.96 44.9575 26.96C45.0253 26.9441 45.0866 26.9078 45.133 26.8559C45.1795 26.804 45.209 26.7391 45.2174 26.67C45.2252 26.6018 45.2122 26.5328 45.1801 26.4721C45.148 26.4114 45.0982 26.3619 45.0374 26.33C40.7783 24.11 35.5794 26.27 35.3394 26.33C29.3407 29.33 29.0707 39.28 29.7006 46.17C27.3411 37.8 22.2121 24.69 13.144 24C12.8441 24 5.77554 24 1.89635 28.57C1.85719 28.6256 1.83618 28.692 1.83618 28.76C1.83618 28.828 1.85719 28.8944 1.89635 28.95C1.93131 29.0098 1.98319 29.0578 2.04548 29.0881C2.10778 29.1184 2.17765 29.1295 2.24625 29.12C2.33623 29.12 10.7845 27.75 14.2438 29.85C12.1335 30.9444 10.319 32.5329 8.95488 34.48C8.91403 34.5387 8.89212 34.6085 8.89212 34.68C8.89212 34.7515 8.91403 34.8213 8.95488 34.88C8.99557 34.9372 9.05298 34.9804 9.11922 35.0037C9.18546 35.027 9.25727 35.0292 9.3248 35.01C9.39479 35.01 15.6635 33.26 18.5429 34.96C17.5291 35.4515 16.6239 36.1409 15.8804 36.9875C15.1369 37.8342 14.5703 38.821 14.2138 39.89C14.1931 39.9508 14.1907 40.0162 14.2066 40.0784C14.2226 40.1406 14.2564 40.1967 14.3038 40.24C14.3486 40.2851 14.4058 40.3158 14.4681 40.3283C14.5304 40.3408 14.595 40.3344 14.6537 40.31C16.1434 39.76 20.0226 38.67 22.0222 39.41C21.1016 39.6779 20.2715 40.192 19.6214 40.8968C18.9713 41.6017 18.5258 42.4706 18.333 43.41C18.3232 43.4726 18.3312 43.5366 18.3559 43.5949C18.3807 43.6532 18.4212 43.7035 18.4729 43.74C18.5276 43.7716 18.5897 43.7882 18.6529 43.7882C18.7161 43.7882 18.7781 43.7716 18.8328 43.74C19.8218 43.2307 20.9235 42.9801 22.0353 43.0116C23.1472 43.0431 24.233 43.3556 25.1915 43.92C23.9432 44.4256 22.8744 45.2927 22.1222 46.41C22.0977 46.4562 22.0848 46.5077 22.0848 46.56C22.0848 46.6123 22.0977 46.6638 22.1222 46.71C22.1407 46.7593 22.1701 46.8038 22.2082 46.8401C22.2462 46.8765 22.292 46.9038 22.3421 46.92C25.2849 47.9759 27.9031 49.7781 29.9405 52.15C25.0016 50.24 8.245 44.49 2.36622 52.15C2.22625 52.36 -1.08307 57.35 0.366632 62.24C0.386604 62.3056 0.425936 62.3636 0.479463 62.4064C0.53299 62.4493 0.59826 62.4749 0.666619 62.48H0.716596C0.776528 62.4736 0.833776 62.4518 0.882822 62.4168C0.931868 62.3817 0.971016 62.3346 0.996507 62.28C0.996507 62.21 3.91594 55.77 6.93531 54.28C6.75521 56.2525 7.04295 58.2396 7.77514 60.08C7.79836 60.1458 7.84183 60.2025 7.89932 60.242C7.9568 60.2816 8.02534 60.3019 8.09508 60.3C8.16692 60.2989 8.23656 60.2751 8.29404 60.232C8.35152 60.1889 8.39386 60.1287 8.41499 60.06C8.41499 60.01 10.0647 54.93 12.5242 53.62C12.4146 54.5555 12.4907 55.5034 12.748 56.4094C13.0054 57.3155 13.4389 58.1618 14.0238 58.9C14.064 58.949 14.1173 58.9855 14.1776 59.005C14.2379 59.0245 14.3025 59.0262 14.3638 59.01C14.4254 58.9975 14.4819 58.9671 14.5264 58.9226C14.5708 58.8782 14.6012 58.8216 14.6137 58.76C14.9037 57.5 15.8735 54.4 17.2432 53.26C17.0342 54.0276 17.0333 54.837 17.2407 55.605C17.448 56.373 17.8561 57.0719 18.4229 57.63C18.4696 57.672 18.5267 57.7006 18.5883 57.713C18.6499 57.7253 18.7136 57.7208 18.7729 57.7C18.8326 57.6765 18.8847 57.637 18.9235 57.5858C18.9623 57.5347 18.9863 57.4739 18.9928 57.41C19.0981 56.5062 19.4216 55.6416 19.9355 54.8907C20.4493 54.1399 21.138 53.5253 21.9422 53.1C21.7431 54.192 21.8682 55.3184 22.3021 56.34C22.3222 56.388 22.3535 56.4303 22.3936 56.4634C22.4337 56.4965 22.4812 56.5194 22.5321 56.53C22.5825 56.5411 22.6349 56.5406 22.6851 56.5285C22.7354 56.5164 22.7822 56.4929 22.822 56.46C23.612 55.8403 24.4749 55.3197 25.3915 54.91C24.9911 55.2794 24.6804 55.7354 24.4828 56.2432C24.2853 56.7509 24.2063 57.2971 24.2517 57.84C24.3331 58.7932 24.7895 59.6752 25.5206 60.2921C26.2518 60.9089 27.1978 61.2103 28.1509 61.13C28.9345 61.0612 29.673 60.7341 30.2505 60.2C31.1003 62.42 34.3496 73.06 28.8508 94.2C21.4323 96.43 20.2525 98.77 19.2228 100.84C18.8888 101.592 18.444 102.29 17.903 102.91C17.3804 103.649 17.0712 104.518 17.0095 105.421C16.9478 106.324 17.1359 107.227 17.5531 108.03C18.9228 110.89 23.4319 114.03 37.0891 112.88C46.4871 112.08 52.2759 109.88 54.2955 106.34C54.7055 105.662 54.9515 104.898 55.0139 104.108C55.0764 103.318 54.9537 102.524 54.6554 101.79C52.6558 97.01 47.5369 93.14 42.6579 92.67C41.8781 84.96 39.4886 66.89 33.8298 59.67C34.069 59.695 34.3103 59.695 34.5496 59.67C35.5035 59.5861 36.3852 59.1274 37.0018 58.3946C37.6183 57.6617 37.9193 56.7144 37.8389 55.76C37.7768 55.0427 37.5004 54.3607 37.0458 53.8026C36.5911 53.2444 35.9792 52.8358 35.2894 52.63C37.2154 52.4626 39.1557 52.6422 41.0183 53.16C41.0634 53.1821 41.113 53.1935 41.1632 53.1935C41.2135 53.1935 41.263 53.1821 41.3082 53.16C41.3525 53.1322 41.3894 53.094 41.4156 53.0487C41.4417 53.0033 41.4563 52.9523 41.4582 52.9C41.4833 51.6563 41.1351 50.4337 40.4584 49.39C41.4743 49.4859 42.4504 49.8332 43.2987 50.4005C44.1469 50.9679 44.8407 51.7375 45.3174 52.64C45.345 52.6962 45.3876 52.7437 45.4406 52.7773C45.4935 52.8108 45.5547 52.829 45.6173 52.83C45.68 52.829 45.7411 52.8108 45.794 52.7773C45.847 52.7437 45.8896 52.6962 45.9172 52.64C46.2801 51.8305 46.416 50.9376 46.3103 50.0568C46.2046 49.176 45.8614 48.3406 45.3174 47.64C47.197 48.19 49.5165 51.04 50.3163 52.24C50.3507 52.2896 50.3973 52.3295 50.4516 52.3557C50.5059 52.382 50.5661 52.3938 50.6263 52.39C50.6897 52.3806 50.7491 52.3528 50.797 52.3102C50.845 52.2676 50.8794 52.2119 50.8962 52.15C51.1925 51.1583 51.2902 50.1178 51.1838 49.0882C51.0774 48.0587 50.7691 47.0602 50.2763 46.15C53.3457 46.45 57.1249 51.06 57.1649 51.15C57.2098 51.2045 57.2701 51.2442 57.3379 51.2638C57.4057 51.2835 57.4778 51.2821 57.5448 51.26C57.6133 51.2377 57.6722 51.1931 57.7121 51.1332C57.752 51.0733 57.7706 51.0017 57.7648 50.93C57.7732 48.7374 57.2591 46.5743 56.2651 44.62C59.9743 44.9 65.6032 50.4 65.6632 50.46C65.7123 50.5085 65.7753 50.5403 65.8435 50.5511C65.9116 50.5618 65.9814 50.551 66.0431 50.52C66.105 50.4914 66.1564 50.4443 66.1905 50.3852C66.2245 50.3261 66.2394 50.2579 66.2331 50.19C65.8031 44.62 60.4143 40.85 60.1643 40.68ZM42.278 96.29C42.1472 97.3407 41.7164 98.3314 41.0373 99.1437C40.3582 99.9559 39.4595 100.555 38.4488 100.87C35.6094 101.87 31.6002 101.21 29.7006 99.43C29.3137 99.1157 29.0244 98.6976 28.8668 98.2246C28.7092 97.7517 28.6898 97.2436 28.8108 96.76L29.0507 95.88C31.5098 96.7941 34.1289 97.1989 36.7491 97.07C38.79 96.9877 40.7205 96.1208 42.138 94.65C42.228 95.56 42.268 96.14 42.278 96.29ZM42.048 93.69C38.6188 98.3 30.7904 95.79 29.2207 95.22C29.6806 93.52 30.0839 91.8866 30.4305 90.32C32.1974 91.411 34.272 91.8956 36.3392 91.7C38.2129 91.5011 40.021 90.8972 41.6381 89.93C41.8081 91.39 41.9481 92.67 42.048 93.69ZM41.5482 89.2C35.5494 92.8 31.4302 90.2 30.5504 89.61C30.8904 88.04 31.1703 86.54 31.4202 85.11C33.0322 85.6306 34.7304 85.831 36.4192 85.7C37.9635 85.5775 39.462 85.1166 40.8083 84.35C41.1382 86.08 41.3582 87.77 41.5482 89.2ZM31.5502 84.43C31.8002 82.93 32.0001 81.49 32.1501 80.14C33.473 80.624 34.8859 80.8117 36.2892 80.69C37.6004 80.5788 38.8723 80.1866 40.0185 79.54C40.2884 80.93 40.5184 82.3 40.7283 83.63C39.3414 84.3932 37.8106 84.8586 36.2336 84.9963C34.6567 85.1341 33.0684 84.9412 31.5702 84.43H31.5502ZM32.2201 79.43C32.35 78.15 32.45 76.93 32.51 75.78C33.6395 76.1552 34.8332 76.298 36.0193 76.2C37.1172 76.1022 38.1795 75.7605 39.1286 75.2C39.3986 76.39 39.6585 77.6 39.8885 78.79C38.7419 79.4597 37.4606 79.8656 36.1376 79.978C34.8146 80.0904 33.4832 79.9067 32.2401 79.44L32.2201 79.43ZM32.55 75.07C32.55 74 32.61 72.99 32.6 72.07C33.3385 72.2044 34.0914 72.2414 34.8396 72.18C35.9939 72.1021 37.1028 71.7 38.0389 71.02C38.3688 72.18 38.6788 73.37 38.9587 74.57C37.9945 75.1134 36.9237 75.4405 35.8205 75.5286C34.7173 75.6167 33.6081 75.4636 32.57 75.08L32.55 75.07ZM32.6 71.34C32.6 70.15 32.52 69.06 32.43 68.06C32.9676 68.1817 33.5207 68.2188 34.0697 68.17C35.0604 68.0806 36.0111 67.7361 36.8291 67.17C37.1791 68.17 37.519 69.17 37.8289 70.26C37.085 70.7956 36.2372 71.1694 35.34 71.3571C34.4428 71.5449 33.5162 71.5424 32.62 71.35L32.6 71.34ZM32.3701 67.34C32.2834 66.5 32.1834 65.73 32.0701 65.03C32.3859 65.0609 32.7041 65.0609 33.0199 65.03C33.943 64.9656 34.8233 64.6162 35.5394 64.03C35.9093 64.82 36.2493 65.66 36.5892 66.53C35.9986 66.9788 35.3129 67.2861 34.5849 67.4283C33.8569 67.5704 33.1061 67.5436 32.39 67.35L32.3701 67.34ZM31.9601 64.34C31.8102 63.54 31.6602 62.85 31.5102 62.26C31.7164 62.28 31.924 62.28 32.1301 62.26C32.8847 62.2083 33.595 61.885 34.1297 61.35C34.547 61.9946 34.9275 62.6624 35.2695 63.35C34.83 63.7508 34.3067 64.0486 33.7377 64.2216C33.1687 64.3946 32.5682 64.4384 31.9801 64.35L31.9601 64.34ZM31.3103 61.54C31.1203 60.88 30.9503 60.39 30.8204 60.05H31.2503C31.7806 60.0013 32.2931 59.8338 32.75 59.56C33.1065 59.9435 33.4403 60.3475 33.7497 60.77C33.4512 61.102 33.07 61.3491 32.6451 61.4861C32.2201 61.6231 31.7665 61.6451 31.3303 61.55L31.3103 61.54ZM32.62 58.85C32.2918 59.075 31.9221 59.2324 31.5325 59.3131C31.1428 59.3938 30.741 59.3961 30.3505 59.32C29.7316 59.1929 29.1705 58.8691 28.7507 58.397C28.3308 57.9248 28.0749 57.3295 28.021 56.7C27.9866 56.3221 28.0272 55.9412 28.1404 55.5791C28.2536 55.217 28.4373 54.8809 28.6808 54.59C28.9249 54.287 29.228 54.0367 29.5717 53.8545C29.9155 53.6723 30.2927 53.5619 30.6804 53.53H31.1103C31.4812 53.5487 31.8448 53.6404 32.1801 53.8C32.6441 54.0188 33.0426 54.3556 33.3356 54.7768C33.6286 55.198 33.8059 55.6887 33.8497 56.2C33.9005 56.7107 33.8154 57.2257 33.6029 57.6929C33.3904 58.1601 33.0582 58.5627 32.64 58.86L32.62 58.85ZM35.6194 27.02C36.9019 26.523 38.2483 26.2099 39.6186 26.09C41.0504 25.9411 42.4975 26.1084 43.8577 26.58C41.7681 27.16 36.8591 28.74 35.6194 31.16C35.5874 31.211 35.5705 31.2699 35.5705 31.33C35.5705 31.3901 35.5874 31.4491 35.6194 31.5C35.6506 31.5503 35.6952 31.5909 35.7481 31.6174C35.8011 31.6439 35.8603 31.6552 35.9193 31.65C37.5182 31.6882 39.0835 32.1174 40.4784 32.9C38.6987 33.23 35.0495 34.13 33.9897 36.19C33.9608 36.2402 33.9455 36.2971 33.9455 36.355C33.9455 36.4129 33.9608 36.4698 33.9897 36.52C34.0205 36.5714 34.0647 36.6134 34.1175 36.6416C34.1703 36.6698 34.2298 36.6831 34.2896 36.68C35.8279 36.6871 37.3106 37.2561 38.4588 38.28C36.9391 38.41 33.5098 38.9 32.63 40.57C32.5963 40.624 32.5784 40.6864 32.5784 40.75C32.5784 40.8136 32.5963 40.876 32.63 40.93C32.6657 40.9847 32.7178 41.0268 32.7789 41.0501C32.8399 41.0735 32.9068 41.0769 32.9699 41.06C33.5938 40.9346 34.2385 40.96 34.8506 41.1339C35.4627 41.3078 36.0244 41.6253 36.4892 42.06C35.527 42.077 34.5854 42.3417 33.7553 42.8286C32.9252 43.3156 32.2346 44.0083 31.7502 44.84C31.7184 44.8929 31.7017 44.9533 31.7017 45.015C31.7017 45.0766 31.7184 45.1371 31.7502 45.19C31.7846 45.2419 31.8327 45.2834 31.8891 45.3098C31.9455 45.3363 32.0082 45.3467 32.0701 45.34C33.0149 45.2747 33.9601 45.461 34.8095 45.88C33.1114 47.5227 31.8206 49.5397 31.0403 51.77C30.3305 46.97 28.1109 30.82 35.6994 27.03L35.6194 27.02ZM22.852 46.52C23.6606 45.56 24.7197 44.8434 25.9114 44.45C25.9714 44.4328 26.0255 44.3995 26.0678 44.3537C26.1102 44.3078 26.1391 44.2512 26.1513 44.19C26.161 44.1284 26.1541 44.0653 26.1312 44.0073C26.1084 43.9493 26.0705 43.8984 26.0214 43.86C25.0318 43.118 23.8665 42.6458 22.6397 42.4898C21.4128 42.3338 20.1665 42.4993 19.0228 42.97C19.8326 40.47 22.682 39.97 22.812 39.91C22.8759 39.9018 22.9359 39.8745 22.9841 39.8317C23.0323 39.7889 23.0664 39.7325 23.082 39.67C23.0967 39.6071 23.0942 39.5415 23.0749 39.4799C23.0555 39.4183 23.02 39.3631 22.972 39.32C21.1124 37.76 16.6833 38.97 14.9736 39.52C15.8106 37.665 17.323 36.1989 19.2028 35.42C19.2596 35.4007 19.3101 35.3664 19.3489 35.3206C19.3876 35.2747 19.4132 35.2192 19.4227 35.16C19.4329 35.1017 19.4282 35.0418 19.409 34.9858C19.3897 34.9298 19.3566 34.8797 19.3127 34.84C17.0332 32.89 12.0742 33.72 9.97466 34.19C11.2668 32.5025 12.9662 31.1708 14.9136 30.32C14.9699 30.2998 15.0199 30.2652 15.0585 30.2195C15.0971 30.1739 15.123 30.1189 15.1336 30.06C15.1459 30.0017 15.1421 29.9412 15.1227 29.8848C15.1034 29.8285 15.0691 29.7784 15.0236 29.74C12.3142 27.46 5.5256 28.07 3.02612 28.38C6.80534 24.72 13.024 24.74 13.084 24.74C24.0018 25.58 29.1707 46.33 30.3505 51.86C28.3366 49.501 25.7759 47.6711 22.892 46.53L22.852 46.52ZM22.702 55.77C22.4366 54.7876 22.4366 53.7524 22.702 52.77C22.7206 52.7106 22.722 52.6472 22.7061 52.587C22.6902 52.5268 22.6576 52.4724 22.6121 52.43C22.5686 52.3862 22.5137 52.3555 22.4536 52.3413C22.3935 52.3272 22.3306 52.3302 22.2721 52.35C21.3031 52.6954 20.4391 53.2843 19.7633 54.0602C19.0874 54.836 18.6224 55.7726 18.4129 56.78C18.0428 56.1973 17.8194 55.5336 17.762 54.8456C17.7045 54.1577 17.8147 53.466 18.083 52.83C18.117 52.778 18.1351 52.7172 18.1351 52.655C18.1351 52.5928 18.117 52.532 18.083 52.48C18.0401 52.4319 17.9845 52.3969 17.9225 52.3792C17.8606 52.3615 17.7949 52.3618 17.7331 52.38C15.7935 52.95 14.5937 56.5 14.1638 58.03C13.2977 56.612 12.9912 54.9219 13.304 53.29C13.3164 53.2325 13.3137 53.1729 13.2962 53.1168C13.2787 53.0607 13.2469 53.0102 13.204 52.97C13.1628 52.926 13.1096 52.895 13.051 52.8808C12.9924 52.8666 12.9309 52.8698 12.8741 52.89C10.4946 53.58 8.80493 57.29 8.12507 59.06C7.57493 57.4188 7.4342 55.668 7.71515 53.96C7.73173 53.902 7.73211 53.8406 7.71625 53.7824C7.70039 53.7242 7.66888 53.6715 7.62517 53.63C7.58259 53.588 7.52939 53.5584 7.47127 53.5443C7.41316 53.5302 7.3523 53.5322 7.29522 53.55C4.4858 54.39 1.82634 59.25 0.816551 61.28C0.0867022 56.99 2.9061 52.73 2.9261 52.7C4.62575 50.5 7.3552 49.51 10.4746 49.24C17.5231 48.64 26.4713 51.76 29.7806 53.01C27.2346 53.3515 24.8074 54.2979 22.702 55.77ZM28.5008 53.92L28.3309 54.08H28.0309L28.5008 53.92ZM24.8716 57.92C24.8387 57.5357 24.882 57.1488 24.999 56.7813C25.116 56.4138 25.3043 56.073 25.5533 55.7785C25.8022 55.484 26.1068 55.2416 26.4497 55.0651C26.7925 54.8886 27.1668 54.7815 27.551 54.75H27.851V54.8C27.851 54.85 27.801 54.91 27.771 54.96C27.7026 55.0962 27.6425 55.2365 27.591 55.38L27.531 55.59C27.4906 55.7309 27.4605 55.8746 27.4411 56.02V56.21C27.4211 56.4262 27.4211 56.6438 27.4411 56.86C27.4564 57.0421 27.4865 57.2227 27.531 57.4C27.531 57.46 27.5311 57.52 27.581 57.58L27.701 57.92L27.791 58.11C27.8383 58.2098 27.8917 58.3067 27.951 58.4L28.0709 58.59C28.1286 58.6775 28.1921 58.761 28.2609 58.84L28.4109 59.01C28.4824 59.0916 28.5593 59.1684 28.6408 59.24L28.8108 59.38C28.8965 59.4522 28.9867 59.519 29.0807 59.58L29.2507 59.69C29.3948 59.7719 29.5453 59.8421 29.7006 59.9C29.2386 60.2925 28.6651 60.5303 28.0609 60.58C27.6691 60.6169 27.2739 60.5748 26.8987 60.4561C26.5236 60.3375 26.176 60.1446 25.8767 59.8891C25.5774 59.6336 25.3324 59.3205 25.1563 58.9685C24.9803 58.6165 24.8766 58.2328 24.8516 57.84L24.8716 57.92ZM54.0156 102.21C54.2709 102.858 54.3721 103.557 54.3114 104.251C54.2507 104.945 54.0296 105.616 53.6656 106.21C52.3559 108.49 48.3967 111.42 36.9991 112.4C23.002 113.59 19.1728 110.11 18.123 107.92C17.7712 107.238 17.6079 106.474 17.6501 105.707C17.6923 104.941 17.9384 104.2 18.3629 103.56C18.9504 102.892 19.4356 102.14 19.8027 101.33C20.8024 99.33 21.8522 97.27 28.6108 95.16C28.4809 95.67 28.3409 96.16 28.2009 96.7C28.0359 97.3014 28.0502 97.9379 28.2421 98.5313C28.4339 99.1247 28.7949 99.649 29.2807 100.04C30.2801 100.837 31.4267 101.429 32.655 101.782C33.8833 102.136 35.1692 102.244 36.4392 102.1C37.2158 102.034 37.9814 101.873 38.7187 101.62C39.8513 101.264 40.8572 100.588 41.6161 99.6749C42.375 98.7616 42.8547 97.6489 42.9978 96.47V96.4C42.9978 96.19 42.9079 95.15 42.7479 93.54C45.1847 93.9352 47.4863 94.9261 49.4484 96.4246C51.4105 97.923 52.9725 99.8828 53.9956 102.13L54.0156 102.21ZM37.159 56.01C37.192 56.3935 37.149 56.7797 37.0327 57.1465C36.9163 57.5134 36.7288 57.8538 36.4809 58.1481C36.233 58.4425 35.9296 58.6852 35.5879 58.8622C35.2462 59.0393 34.873 59.1473 34.4896 59.18C34.1542 59.2125 33.8158 59.1854 33.4898 59.1C33.5498 59.05 33.5898 58.99 33.6498 58.93L33.7298 58.84C33.8197 58.73 33.9097 58.61 33.9897 58.49C34.0597 58.38 34.1197 58.26 34.1797 58.15L34.2397 58.02C34.2397 57.93 34.3097 57.84 34.3397 57.74C34.3696 57.64 34.3396 57.64 34.3896 57.59C34.4188 57.4982 34.4422 57.4047 34.4596 57.31V57.16V56.86C34.4642 56.8134 34.4642 56.7666 34.4596 56.72C34.4696 56.5702 34.4696 56.4198 34.4596 56.27C34.4596 56.12 34.4596 55.98 34.3896 55.83C34.3196 55.68 34.3896 55.74 34.3896 55.69C34.3896 55.64 34.3396 55.5 34.3096 55.41L34.2496 55.25C34.2172 55.1649 34.1805 55.0814 34.1397 55C34.117 54.948 34.0902 54.8978 34.0597 54.85C34.0597 54.77 33.9697 54.69 33.9197 54.61L33.8298 54.48C33.7684 54.3867 33.6981 54.2996 33.6198 54.22L33.5598 54.14C33.4648 54.0383 33.3647 53.9415 33.2599 53.85L33.1399 53.76L32.9699 53.62C33.2681 53.4895 33.5855 53.4084 33.9097 53.38C34.675 53.2952 35.443 53.5153 36.0473 53.9925C36.6517 54.4697 37.0439 55.1657 37.1391 55.93L37.159 56.01ZM55.6952 44.01C55.6363 44.0154 55.5797 44.0357 55.5308 44.0689C55.4818 44.1021 55.4421 44.1472 55.4153 44.2C55.3864 44.252 55.3712 44.3105 55.3712 44.37C55.3712 44.4295 55.3864 44.488 55.4153 44.54C56.4154 46.2075 56.9857 48.0975 57.0749 50.04C55.7052 48.54 52.4459 45.34 49.7065 45.58C49.6485 45.5841 49.5927 45.604 49.5451 45.6375C49.4975 45.671 49.46 45.7168 49.4365 45.77C49.4076 45.822 49.3925 45.8805 49.3925 45.94C49.3925 45.9995 49.4076 46.058 49.4365 46.11C50.4181 47.6905 50.7746 49.5805 50.4363 51.41C49.4365 50.05 46.7171 46.82 44.4875 47.02C44.4226 47.0229 44.36 47.0454 44.3082 47.0847C44.2564 47.1241 44.2179 47.1782 44.1976 47.24C44.173 47.2994 44.1674 47.365 44.1818 47.4277C44.1961 47.4904 44.2296 47.5472 44.2776 47.59C44.8198 48.1446 45.2167 48.8245 45.4329 49.5695C45.6492 50.3144 45.6782 51.1012 45.5173 51.86C44.8964 50.9115 44.043 50.1378 43.0384 49.6127C42.0338 49.0875 40.9116 48.8284 39.7785 48.86C39.7153 48.864 39.6544 48.8846 39.6017 48.9197C39.5491 48.9549 39.5066 49.0032 39.4786 49.06C39.454 49.1173 39.4457 49.1803 39.4545 49.242C39.4633 49.3037 39.4889 49.3619 39.5286 49.41C40.2134 50.3319 40.6287 51.4258 40.7283 52.57C38.8666 52.1058 36.9403 51.9571 35.0295 52.13C34.1036 52.2154 33.1849 52.3658 32.28 52.58C36.2792 48.93 51.1262 36.15 59.7644 41.32C59.8144 41.32 64.5034 44.63 65.4332 49.39C63.6936 47.69 58.9246 43.68 55.6952 43.96V44.01Z" fill="#F7931A" fill-opacity="0.6"/>
</svg>
