<svg width="71" height="42" viewBox="0 0 71 42" fill="none" xmlns="http://www.w3.org/2000/svg">
<path d="M56.8386 18.4296C56.8386 18.4296 57.1272 18.9359 57.3955 19.4067C56.4943 18.8194 55.3501 18.384 55.3501 18.384L53.74 19.2751L54.5349 20.6624L53.1679 19.3207L53.8818 20.708L52.8945 19.8472C52.8945 19.8472 51.9375 20.1611 50.8642 22.1914C49.7908 24.2217 49.73 25.2343 49.73 25.2343C49.73 25.2343 50.9047 24.6774 52.1806 24.4091C53.4868 24.1458 53.9982 24.1913 53.9982 24.1913C53.9982 24.1913 53.7805 23.8167 53.4615 23.4116C54.4843 23.7863 54.9855 24.242 54.9855 24.242L56.4994 23.042C56.4994 23.042 56.2817 21.9433 56.0893 21.4978C56.5551 22.0598 56.8842 22.8851 56.8842 22.8851C56.8842 22.8851 57.0158 22.0902 57.031 21.513C57.3652 22.1459 57.6386 22.7028 57.6386 22.7028C57.6386 22.7028 57.8411 22.5408 58.1398 22.2927C58.1854 22.2522 58.2411 22.2117 58.2917 22.1661C58.2816 22.1914 58.2714 22.2117 58.2613 22.237C58.0942 22.5965 57.9322 22.956 57.7854 23.3154C57.4411 24.3078 57.112 25.2445 56.8032 26.1254C53.2843 36.0946 51.7097 39.5932 50.6363 41.1931C49.4009 40.4235 48.5807 39.0565 48.5807 37.492V15.2246L49.3199 15.2601L50.5098 14.0146L49.8617 15.7613L51.0869 14.2222L50.4794 16.0904C50.4794 16.0904 50.9502 16.0145 51.6034 16.0499C52.2616 16.0854 53.178 16.1765 53.178 16.1765C53.178 16.1765 54.3678 15.2955 55.2994 14.8854C54.6665 15.4981 53.6387 16.5664 53.6387 16.5664C53.6387 16.5664 54.4286 16.617 54.7324 16.6271C55.0615 16.6474 55.3551 16.7638 55.3551 16.7638C55.3551 16.7638 56.7171 16.3233 57.6436 16.1917C56.9601 16.5107 55.8108 17.179 55.8108 17.179L56.3981 17.4423H58.1803C57.5778 17.584 56.6664 17.8321 56.6664 17.8321C56.6664 17.8321 57.4968 18.1157 58.3119 18.4498C57.4462 18.3739 56.8487 18.4144 56.8487 18.4144L56.8386 18.4296ZM58.0639 14.5563L59.2182 13.1589L57.6689 14.126L58.6005 12.2729L57.3854 13.5943C56.4133 12.9615 55.2437 12.5159 55.2437 12.5159L56.4994 11.2349L54.6615 12.1412C54.6615 12.1412 54.5248 12.045 53.6185 11.7362C52.697 11.397 51.3806 11.321 51.3806 11.321C51.3806 11.321 52.2666 11.0679 53.0413 10.8046C52.135 10.8603 49.968 11.2147 49.968 11.2147C49.968 11.2147 51.173 10.3084 52.8337 9.80717C50.5857 9.85273 48.7529 11.5995 48.5757 13.8121C50.449 12.9665 53.2084 12.2476 55.7602 13.6146C58.0993 14.8652 59.4916 16.6575 60.3017 18.0752C60.1245 16.7689 59.5018 15.6297 58.0588 14.5462L58.0639 14.5563ZM59.2031 11.6805C60.8283 13.7108 61.3144 15.5588 61.3194 16.9765C63.4206 12.6729 66.7926 10.9008 69.6836 11.0426C68.8988 10.278 67.8255 9.80717 66.6407 9.80717H56.7171C57.5829 10.1261 58.4284 10.7084 59.198 11.6805H59.2031ZM69.7747 14.8956L69.3646 13.5184L69.2634 14.931L68.0887 12.7893L68.3216 14.6424C68.3216 14.6424 66.8989 15.2854 65.7952 16.6119C65.7597 16.6271 65.7547 16.6524 65.7547 16.6524C64.8787 15.4373 64.1244 15.0069 64.1244 15.0069L65.3091 17.0119C65.2686 16.9866 63.9522 16.1461 63.3497 15.7968C63.9775 16.379 65.0205 17.3157 65.0205 17.3157L62.97 16.4854L64.5142 17.6043C63.8206 17.8625 63.2434 18.2119 62.7118 18.5764C65.1927 17.7916 68.3773 17.2448 71 18.2979V14.7791C70.1393 14.7791 69.7747 14.8956 69.7747 14.8956ZM67.1217 20.9712C67.0862 20.9915 67.0609 20.9814 67.0609 20.9814C67.2989 19.665 67.0407 18.8903 67.0407 18.8903L66.4736 20.9105C66.4736 20.9105 66.1141 19.4624 65.9167 18.8447C65.9572 19.6093 66.0432 20.8598 66.0432 20.8598L65.1724 19.0068L65.4863 20.6877C64.3572 20.2016 63.294 19.9536 62.3422 19.8827C62.7168 20.0244 63.1067 20.2016 63.456 20.4194C64.6205 21.1434 65.7648 22.3028 65.7648 22.3028L64.1952 22.8749L66.1344 22.8901C66.1344 22.8901 66.4534 23.2091 66.8432 23.9179C67.2128 24.6166 67.547 25.4166 67.547 25.4166L65.9268 25.528L67.5824 26.014L67.7748 26.6571C67.9672 27.3001 67.8862 29.0823 67.8862 29.0823L66.4584 29.0316L67.7495 29.7911C67.7495 29.7911 67.8153 30.0341 67.2938 31.0974C66.7622 32.1859 64.5851 33.7352 64.5851 33.7352C65.5319 31.0265 64.6762 29.5683 64.6762 29.5683L64.094 29.4721L65.5623 28.5911L63.7598 29.2848C63.7598 29.2848 64.5851 28.5101 64.9192 28.1405L63.8155 28.4696L63.3446 26.1254L64.8636 25.3457L62.8839 25.6242L62.3877 24.3584L63.2332 22.7838L61.9472 24.166C61.9472 24.166 61.8763 22.5053 61.5776 21.4117C61.4916 21.1434 61.3903 20.9004 61.284 20.6877C59.9625 23.1484 56.1196 31.8568 61.5928 41.8665H66.6306C69.0406 41.8665 70.9899 39.9122 70.9899 37.5072V20.87L70.3469 21.5636C70.3469 21.5636 68.8634 20.9662 67.1065 20.9814L67.1217 20.9712Z" fill="url(#paint0_linear_1_151)"/>
<path d="M26.0653 24.9154L24.5109 24.2875V20.9054L27.0779 21.2244L29.7613 22.2269L26.0653 24.9154ZM42.581 0.0101268H28.8702C26.4602 0.0101268 24.5109 1.96447 24.5109 4.36943V17.9334L27.4171 17.7359L29.3006 16.1563C29.3968 16.0803 29.5132 16.0398 29.6449 16.0398C29.9183 16.0398 30.2372 16.2018 30.4853 16.4904C30.7739 16.8246 30.8499 17.2296 30.7385 17.503L37.1635 17.0777L41.9582 13.6399C42.1557 13.4779 42.8088 12.5564 43.8822 12.0552C45.0568 11.5185 45.148 11.721 45.9125 11.6805C46.2517 11.6602 46.6061 11.5894 46.9403 11.5387V4.3593C46.9403 1.94928 44.986 0 42.581 0V0.0101268ZM39.6849 20.8092L40.6267 20.6523V22.9965C40.8697 23.0066 41.1076 23.1483 41.3 23.4066C41.5684 23.766 41.5886 24.2217 41.3304 24.4091L40.6621 24.9407L40.6823 28.2013C40.7026 28.8139 40.4545 29.0873 40.1355 29.2848L39.1837 29.8367L37.0167 25.1888L34.2725 24.3685C34.0649 24.4647 32.9055 25.2597 30.3182 26.4799C27.3158 27.8671 26.4298 28.1253 26.2273 28.2418L26.5614 29.8569C26.6222 30.1354 25.964 30.6012 25.7514 30.4949L24.5058 29.8215V37.487C24.5058 39.8919 26.4602 41.8463 28.8651 41.8463H42.5759C44.986 41.8463 46.9352 39.8919 46.9352 37.487V15.1082C44.4088 17.7106 39.9128 20.6877 39.6748 20.794L39.6849 20.8092Z" fill="url(#paint1_linear_1_151)"/>
<rect y="14.8298" width="23.0336" height="27.1355" rx="11.5168" fill="#D82A2B"/>
<path d="M14.7427 34.008C14.7848 34.0927 14.82 34.17 14.8594 34.2448C14.9091 34.339 14.9551 34.4288 15.0741 34.4577C15.1278 34.4708 15.1906 34.5464 15.2076 34.6068C15.2787 34.8593 15.4083 35.0738 15.5571 35.279C15.5666 35.2921 15.5689 35.311 15.5908 35.3737C15.3129 35.2219 15.0637 35.2851 14.8121 35.3586C14.7695 35.3711 14.7127 35.3291 14.672 35.3155C14.7025 35.2275 14.7383 35.1594 14.7477 35.0875C14.7586 35.0047 14.7241 34.953 14.6429 34.9C14.5551 34.8426 14.5051 34.7181 14.4427 34.62C14.4221 34.5876 14.414 34.5463 14.4006 34.5103C14.1868 34.5094 14.1384 34.5759 14.1598 34.7983C14.1717 34.9221 14.1738 35.0522 14.1512 35.1733C14.1171 35.355 13.9477 35.4423 13.7814 35.3865C13.7094 35.3623 13.6359 35.3196 13.5646 35.3227C13.4556 35.3275 13.3796 35.4064 13.3371 35.5147C13.297 35.6167 13.2347 35.6795 13.1216 35.6615C13.1011 35.6582 13.0734 35.656 13.0589 35.6674C12.8977 35.7943 12.7845 35.6746 12.6647 35.5849C12.6477 35.5721 12.6287 35.5623 12.6052 35.5477C12.5243 35.6135 12.4445 35.6784 12.3646 35.7433C12.3553 35.7389 12.3461 35.7344 12.3368 35.73C12.3477 35.6629 12.3627 35.5962 12.3683 35.5287C12.3732 35.4682 12.383 35.4005 12.3636 35.347C12.3265 35.2447 12.2548 35.2294 12.1894 35.3131C12.1033 35.4232 12.0211 35.4429 11.9038 35.3678C11.8151 35.3109 11.7506 35.3551 11.7216 35.4596C11.6994 35.5395 11.6735 35.6182 11.6529 35.6856C11.6324 35.4392 11.6185 35.1878 11.5853 34.9394C11.5776 34.8822 11.5083 34.8286 11.4585 34.7849C11.3761 34.7126 11.2883 34.6466 11.1987 34.5848C11.1756 34.5688 11.1329 34.5669 11.1062 34.5778C11.0011 34.621 10.9202 34.6275 10.8411 34.51C10.8102 34.464 10.7043 34.4553 10.6352 34.4618C10.473 34.4769 10.4398 34.4638 10.3909 34.3379C10.4868 34.1987 10.5768 34.0824 10.6512 33.9558C10.7158 33.8456 10.7035 33.7296 10.655 33.6063C10.6065 33.483 10.5783 33.348 10.5609 33.2153C10.5554 33.1729 10.6059 33.1137 10.6429 33.0754C10.7463 32.9682 10.7378 32.8345 10.6206 32.7497C10.595 32.7311 10.5742 32.6919 10.5678 32.6586C10.53 32.4596 10.4971 32.2596 10.4652 32.0753C10.6776 31.9579 10.9159 31.8394 11.1402 31.6963C11.2348 31.6359 11.3079 31.5829 11.4306 31.5934C11.6109 31.6088 11.7509 31.4797 11.8772 31.3603C11.9407 31.3003 11.9028 31.2214 11.8354 31.1657C11.7644 31.1069 11.6988 31.0407 11.6077 30.9563C11.7172 30.8852 11.7941 30.8325 11.8735 30.7841C12.161 30.6088 12.4409 30.416 12.7401 30.2671C12.9389 30.1682 13.1658 30.1328 13.3878 30.0667C13.4823 30.3551 13.4468 30.5884 13.299 30.8028C13.2337 30.8975 13.1712 31.0006 13.0871 31.0732C12.8452 31.2819 13.0289 31.7717 13.2807 31.8376C13.3217 31.8484 13.3618 31.8631 13.3827 31.8697C13.3653 32.0083 13.3349 32.1397 13.3385 32.27C13.3402 32.3315 13.3955 32.4244 13.4469 32.4445C13.5691 32.4921 13.6078 32.5798 13.6195 32.7003C13.626 32.7674 13.6357 32.8342 13.6457 32.9153C13.7037 32.889 13.7555 32.8656 13.8123 32.8399C13.8411 32.8936 13.8682 32.9439 13.896 32.9957C14.1412 32.9374 14.3663 32.8452 14.5376 32.6288C14.4875 33.1136 14.5009 33.5751 14.7427 34.008Z" fill="white"/>
<path d="M21.7739 26.0278C21.786 26.0282 21.798 26.0286 21.822 26.0385C21.88 26.1677 21.9334 26.0385 21.9826 26.0529C22.0683 25.9966 22.1504 25.9326 22.2404 25.8858C22.3784 25.8141 22.5219 25.7542 22.663 25.6892C22.6711 25.6992 22.6791 25.7092 22.6871 25.7192C22.6573 25.8155 22.6274 25.9118 22.5987 26.0186C22.5751 26.134 22.5568 26.2412 22.5239 26.343C22.4856 26.4616 22.4014 26.5268 22.2798 26.5217C22.1334 26.5156 22.0091 26.572 21.8821 26.645C21.6091 26.8019 21.3267 26.9403 21.0514 27.0927C20.8911 27.1814 20.7725 27.3198 20.7108 27.5005C20.6155 27.7799 20.4284 27.9688 20.1977 28.1186C19.8847 28.3219 19.5995 28.5621 19.313 28.8057C19.0578 29.0226 18.7449 29.1642 18.4535 29.3313C18.3417 29.3954 18.2187 29.4375 18.1011 29.4905C17.8806 29.5899 17.672 29.7076 17.4966 29.8873C17.282 30.1071 17.0585 30.317 16.8413 30.5339C16.6808 30.6942 16.625 30.9042 16.5955 31.1283C16.5665 31.3486 16.5326 31.3929 16.3235 31.4148C16.1467 31.4332 15.9641 31.4393 15.7889 31.4133C15.4967 31.3699 15.2651 31.4621 15.0936 31.7082C14.9932 31.8523 14.909 32.0102 14.8279 32.1679C14.7462 32.3267 14.6897 32.5078 14.4692 32.4908C14.4556 32.4898 14.4321 32.5039 14.4276 32.5167C14.3462 32.7446 14.1166 32.7044 13.966 32.8196C13.9333 32.7542 13.9057 32.6993 13.874 32.6361C13.8354 32.656 13.7986 32.675 13.7556 32.6972C13.7263 32.5996 13.702 32.506 13.6698 32.4156C13.6449 32.346 13.625 32.2716 13.5266 32.2674C13.5076 32.2666 13.4683 32.1588 13.4803 32.1126C13.5102 31.9974 13.5643 31.8892 13.6132 31.7669C13.5391 31.7542 13.4656 31.7423 13.3923 31.7291C13.2516 31.7037 13.1867 31.5997 13.1464 31.4665C13.1092 31.3437 13.1211 31.2383 13.2135 31.1446C13.4894 30.865 13.6396 30.537 13.5396 30.1123C13.6583 30.1032 13.773 30.1165 13.8738 30.0829C14.319 29.9344 14.7813 29.8462 15.2057 29.6227C15.468 29.4845 15.7548 29.3999 16.0231 29.2731C16.2085 29.1855 16.3799 29.065 16.5595 28.9631C16.6976 28.8848 16.8427 28.8197 16.9774 28.7356C17.1069 28.6547 17.2444 28.5747 17.3475 28.4623C17.5129 28.2821 17.6533 28.0759 17.8032 27.8798C17.8602 27.8052 17.9196 27.7561 18.0215 27.7838C18.1281 27.8126 18.24 27.8409 18.3481 27.8357C18.45 27.8307 18.5647 27.8054 18.6476 27.7472C18.8146 27.6301 18.9889 27.5522 19.1839 27.507C19.3626 27.4655 19.542 27.4066 19.6275 27.2032C19.6309 27.1951 19.6356 27.182 19.6408 27.1813C19.8355 27.1568 19.8672 26.9705 19.9638 26.8409C20.0262 26.7573 20.1636 26.7351 20.2691 26.6901C20.3242 26.6667 20.3821 26.6445 20.4405 26.6372C20.6221 26.6145 20.7601 26.5071 20.9 26.3956C20.9424 26.3619 21.0162 26.3323 21.0601 26.3483C21.2363 26.4128 21.3755 26.3366 21.5295 26.2344C21.6142 26.1688 21.6844 26.1133 21.7547 26.0578C21.7547 26.0578 21.7532 26.056 21.7576 26.0525C21.7663 26.0422 21.7703 26.0351 21.7739 26.0278Z" fill="white"/>
<path d="M11.6577 31.2674C11.6442 31.394 11.5756 31.4397 11.4576 31.436C11.3313 31.4321 11.1873 31.3991 11.119 31.5705C11.1149 31.5807 11.0988 31.592 11.0882 31.592C10.8963 31.5919 10.7796 31.7521 10.626 31.8331C10.5431 31.8768 10.4553 31.9141 10.3659 31.9386C10.2693 31.9652 10.2024 31.9933 10.2798 32.0979C9.94985 32.1078 9.6211 32.1128 9.29291 32.1298C9.16586 32.1364 9.12233 32.2563 9.09198 32.363C8.99634 32.6993 8.92742 32.7613 8.5925 32.7576C8.39683 32.7554 8.20126 32.7321 8.00573 32.7332C7.91152 32.7338 7.81749 32.7689 7.76648 32.7795C7.6162 32.7425 7.49798 32.7124 7.37931 32.6844C7.29306 32.6641 7.19811 32.6642 7.12127 32.6244C6.94135 32.531 6.80377 32.5852 6.67342 32.7238C6.55723 32.8473 6.55423 32.845 6.46264 32.7067C6.40097 32.6136 6.32121 32.5797 6.21145 32.5808C6.14039 32.5815 6.05866 32.549 5.9997 32.5045C5.87266 32.4086 5.76007 32.4584 5.63443 32.502C5.53837 32.5353 5.43223 32.5415 5.32993 32.5476C5.21136 32.5548 5.09105 32.5379 4.9733 32.5505C4.65575 32.5843 4.5596 32.6218 4.40306 32.3024C4.17485 32.3603 3.95517 32.4487 3.73143 32.4623C3.558 32.4729 3.37639 32.4009 3.20444 32.3448C3.10501 32.3124 3.08276 32.2035 3.1137 32.1055C3.17055 31.9254 3.156 31.7507 3.11337 31.572C3.09901 31.5118 3.09754 31.446 3.10156 31.3835C3.10988 31.2547 3.10529 31.1464 3.00214 31.0408C2.94372 30.9811 2.94051 30.8485 2.93346 30.747C2.92286 30.5945 2.9307 30.4406 2.9307 30.2636C3.01163 30.308 3.08256 30.3521 3.15751 30.3863C3.21835 30.414 3.28513 30.4267 3.34707 30.4522C3.37555 30.4639 3.40245 30.4863 3.42375 30.5102C3.57234 30.6769 3.72584 30.8173 3.96699 30.8133C4.09929 30.8111 4.23294 30.8629 4.36506 30.8947C4.51421 30.9306 4.66104 30.9788 4.81121 31.0083C5.01941 31.0492 5.11109 30.9978 5.20607 30.8067C5.30005 30.8447 5.39363 30.8858 5.48922 30.9206C5.71281 31.002 5.93483 31.0599 6.17507 30.9752C6.30868 30.9281 6.44383 30.9673 6.55847 31.0666C6.65846 31.1533 6.76319 31.2002 6.87357 31.0794C6.88702 31.0647 6.91302 31.0517 6.93096 31.0544C7.16957 31.091 7.40885 31.1243 7.64565 31.1716C7.77821 31.198 7.90479 31.2581 8.03731 31.285C8.11855 31.3015 8.20595 31.2844 8.29055 31.2812C8.31125 31.2805 8.33531 31.2662 8.3519 31.2734C8.59116 31.3777 8.83062 31.3118 9.0703 31.2787C9.11235 31.2729 9.15692 31.2658 9.19762 31.2742C9.49602 31.3356 9.78113 31.2851 10.0622 31.1745C10.1287 31.1484 10.2041 31.1355 10.2751 31.1366C10.5054 31.1405 10.7119 31.0727 10.9263 30.9809C11.0843 30.9133 11.2831 30.9462 11.4634 30.9511C11.4954 30.952 11.5283 31.0335 11.5558 31.081C11.59 31.1402 11.6189 31.2029 11.6577 31.2674Z" fill="white"/>
<path d="M5.36768 32.9358C5.27428 32.8682 5.18889 32.8056 5.1035 32.7431C5.10924 32.7271 5.11498 32.7112 5.12072 32.6952C5.25861 32.708 5.39892 32.708 5.53371 32.737C5.67929 32.7683 5.80878 32.7663 5.89442 32.6761C5.99191 32.6874 6.06175 32.7054 6.13037 32.7012C6.22945 32.6951 6.30424 32.7082 6.34024 32.8252C6.37015 32.9225 6.57112 33.0141 6.66476 32.9831C6.67946 32.9782 6.70333 32.9633 6.70285 32.9542C6.69567 32.819 6.79408 32.8048 6.87825 32.7937C6.96033 32.7829 7.04559 32.7939 7.12899 32.8012C7.24729 32.8116 7.36539 32.8255 7.48308 32.842C7.51799 32.8469 7.57468 32.8573 7.58134 32.879C7.61911 33.002 7.70962 32.9808 7.79163 32.9739C8.08032 32.9498 8.37028 32.9331 8.65651 32.8896C8.79638 32.8684 8.93361 32.8041 9.06267 32.7386C9.11043 32.7143 9.14947 32.6345 9.16124 32.5733C9.20166 32.3631 9.26131 32.2972 9.46179 32.279C9.572 32.269 9.68233 32.2604 9.79142 32.2512C9.88374 32.407 9.8943 32.4149 10.0524 32.3365C10.3313 32.1982 10.4507 32.2192 10.4231 32.5917C10.4178 32.6634 10.467 32.7413 10.4969 32.8137C10.5168 32.8619 10.5472 32.9053 10.5813 32.9659C10.3537 33.0338 10.4073 33.202 10.4402 33.3616C10.4538 33.4278 10.4687 33.4941 10.4894 33.558C10.5489 33.7423 10.5405 33.9129 10.3999 34.0536C10.3379 34.1156 10.2667 34.1672 10.1934 34.2289C10.2679 34.4805 10.4285 34.6445 10.7098 34.6611C10.7789 34.6652 10.8464 34.704 10.9139 34.7292C10.9417 34.7396 10.9741 34.7744 10.9929 34.7667C11.0971 34.7239 11.1594 34.8098 11.2415 34.8392C11.3799 34.8886 11.4459 34.9705 11.47 35.1234C11.5039 35.3389 11.5171 35.5507 11.4739 35.8125C11.4026 35.7512 11.3467 35.7179 11.3099 35.6685C11.2177 35.5448 11.1602 35.524 11.0247 35.5863C10.9778 35.6078 10.932 35.6335 10.8835 35.6491C10.7384 35.6959 10.688 35.6643 10.6363 35.5112C10.5966 35.3937 10.5455 35.2875 10.4061 35.2724C10.371 35.2686 10.3317 35.2432 10.3063 35.2154C10.1974 35.0961 10.0919 35.1385 9.98786 35.2179C9.90396 35.2819 9.82908 35.3564 9.71538 35.2673C9.69163 35.2487 9.62864 35.2865 9.57443 35.3008C9.52143 35.1294 9.4681 34.9441 9.40633 34.7621C9.3704 34.6562 9.32471 34.5534 9.27585 34.4534C9.25308 34.4067 9.22004 34.3543 9.17847 34.3314C8.94769 34.2041 8.87769 33.983 8.83732 33.733C8.82648 33.6659 8.76338 33.6079 8.72272 33.5469C8.71317 33.5326 8.69756 33.5227 8.68434 33.5113C8.4468 33.3061 8.37925 33.3135 8.20444 33.5815C8.14294 33.6758 8.07501 33.6505 7.99239 33.6325C7.89524 33.6113 7.79414 33.6082 7.6945 33.6039C7.66854 33.6028 7.62491 33.6199 7.61779 33.6399C7.55934 33.8048 7.44512 33.7168 7.35076 33.7096C7.26119 33.7028 7.17174 33.6913 7.08295 33.6768C6.94595 33.6545 6.80521 33.6428 6.67401 33.5994C6.50794 33.5446 6.3516 33.4576 6.1879 33.3936C5.96211 33.3052 5.73253 33.291 5.50964 33.3951C5.52641 33.2908 5.56909 33.1898 5.54756 33.1077C5.5299 33.0404 5.43587 32.9957 5.36768 32.9358Z" fill="white"/>
<path d="M4.60464 33.7325C4.28723 33.7956 4.02269 33.9611 3.76037 34.1288C3.71756 34.1562 3.68752 34.2172 3.66625 34.2694C3.57638 34.49 3.42953 34.6283 3.20016 34.6621C3.14602 34.6701 3.08705 34.6822 3.0422 34.7124C2.91048 34.801 2.80171 34.7508 2.68975 34.6703C2.60615 34.6101 2.51385 34.5633 2.43188 34.501C2.39767 34.475 2.37302 34.4273 2.3564 34.3841C2.30148 34.2414 2.21166 34.2171 2.10086 34.3191C2.04034 34.3748 1.9693 34.421 1.92027 34.4861C1.89118 34.5248 1.89185 34.5914 1.88615 34.6463C1.88032 34.7024 1.89556 34.7638 1.87966 34.8152C1.83734 34.9522 1.77182 34.9655 1.68027 34.8586C1.47685 34.6209 1.25816 34.4272 0.92397 34.4628C0.854827 34.4701 0.7774 34.4218 0.707999 34.3891C0.407745 34.2475 0.283176 34.007 0.322625 33.6233C0.412831 33.639 0.509517 33.6365 0.590239 33.6734C0.831709 33.7838 1.0918 33.8738 1.29943 34.0367C1.73484 34.3782 2.0323 34.3326 2.51022 33.8469C2.83063 33.5212 2.93564 33.074 3.02521 32.6285C3.03753 32.5672 3.04897 32.5057 3.06672 32.4137C3.46771 32.6527 3.87401 32.6715 4.2689 32.5056C4.36362 32.5677 4.44432 32.6299 4.53251 32.6759C4.62247 32.7229 4.70891 32.8106 4.8256 32.7182C4.85152 32.6977 4.92734 32.7188 4.9625 32.7462C5.06759 32.8282 5.1611 32.9268 5.26433 33.0117C5.41024 33.1318 5.42265 33.2392 5.27741 33.3622C5.13812 33.4802 4.98911 33.5873 4.83548 33.6832C4.77421 33.7214 4.6891 33.7166 4.60464 33.7325Z" fill="white"/>
<path d="M9.2618 36.1183C9.34074 35.9839 9.41136 35.8554 9.49298 35.7354C9.51183 35.7076 9.56839 35.7088 9.60759 35.6967C9.60233 35.7438 9.6134 35.807 9.58881 35.835C9.50674 35.9283 9.45455 36.0175 9.51619 36.1484C9.52709 36.1715 9.50442 36.2287 9.48101 36.2509C9.39548 36.3318 9.29624 36.3753 9.16144 36.3329C9.19538 36.2602 9.22643 36.1938 9.2618 36.1183Z" fill="white"/>
<path d="M2.21764 34.8324C2.13451 34.8853 2.05831 34.9315 1.98212 34.9776C1.9736 34.97 1.96508 34.9624 1.95656 34.9549C1.9844 34.888 2.01283 34.8213 2.03991 34.7541C2.06462 34.6927 2.12853 34.6257 2.00092 34.5798C2.05064 34.5497 2.08365 34.525 2.12 34.5088C2.16758 34.4874 2.21779 34.4728 2.26688 34.4552C2.28073 34.5149 2.31168 34.5771 2.30401 34.6335C2.29493 34.7002 2.25253 34.7618 2.21764 34.8324Z" fill="white"/>
<path d="M21.7452 26.0571C21.6845 26.113 21.6142 26.1686 21.5353 26.2274C21.5398 26.1732 21.5467 26.1126 21.5697 26.06C21.578 26.0411 21.625 26.0351 21.6546 26.0345C21.6815 26.0339 21.7086 26.0487 21.7452 26.0571Z" fill="white"/>
<path d="M5.47655 33.3937C5.47641 33.4018 5.47059 33.4038 5.46476 33.4057C5.46679 33.3996 5.46882 33.3935 5.47655 33.3937Z" fill="white"/>
<path d="M21.7684 26.0284C21.7702 26.0351 21.7663 26.0422 21.7581 26.0537C21.7537 26.0535 21.7532 26.0489 21.7524 26.0372C21.752 26.0302 21.7629 26.029 21.7684 26.0284Z" fill="white"/>
<path d="M21.9826 26.0424C21.9333 26.0382 21.8799 26.1674 21.8309 26.0395C21.8689 25.995 21.9099 25.9588 21.9678 25.9074C21.9747 25.9658 21.9787 25.999 21.9826 26.0424Z" fill="white"/>
<path d="M11.2463 22.2241C11.5405 22.5215 11.725 22.9322 11.725 23.3872C11.725 23.8422 11.6701 23.8711 11.5713 24.0819C11.4922 24.2528 11.3824 24.4104 11.2529 24.5436C11.2507 24.5458 11.2485 24.5481 11.2441 24.5525C10.9499 24.8499 10.5437 25.0319 10.0936 25.0319C9.64352 25.0319 9.23952 24.8499 8.94312 24.5525C8.6489 24.2551 8.46886 23.8444 8.46886 23.3894C8.46886 22.9344 8.5018 23.0165 8.55888 22.8456C8.62036 22.6658 8.71258 22.4993 8.82894 22.3551C8.86407 22.3107 8.90359 22.2663 8.94312 22.2263C9.24172 21.9289 9.64352 21.7424 10.0936 21.7424C10.5437 21.7424 10.9521 21.9289 11.2441 22.2263L11.2463 22.2241ZM13.8811 23.3894C13.8811 22.3306 13.4595 21.3784 12.7723 20.6837C12.0894 19.9889 11.1431 19.5628 10.0958 19.5628C9.0485 19.5628 8.10658 19.9889 7.41936 20.6837C7.26347 20.8413 7.12075 21.0144 6.9956 21.1964C6.89021 21.3496 6.79361 21.5094 6.71017 21.6781C6.62674 21.8468 6.55428 22.0221 6.495 22.2041C6.37424 22.577 6.31057 22.9743 6.31057 23.3894C6.31057 24.3705 6.6948 25.3915 7.25908 26.3593C8.00998 27.6489 9.02435 28.7764 10.087 29.8086C10.0892 29.8108 10.0936 29.8152 10.098 29.8175C10.1068 29.8086 10.1156 29.7997 10.1244 29.7908C11.1848 28.7631 12.1882 27.64 12.9369 26.3593C12.9413 26.3526 12.9457 26.346 12.9479 26.3393C13.0445 26.1728 13.1389 26.0019 13.2224 25.8332C13.3102 25.6579 13.3914 25.4825 13.4639 25.305C13.7274 24.6679 13.8833 24.0198 13.8833 23.3894H13.8811Z" fill="white"/>
<defs>
<linearGradient id="paint0_linear_1_151" x1="59.7904" y1="9.81223" x2="59.7904" y2="41.8564" gradientUnits="userSpaceOnUse">
<stop stop-color="#2ECC71"/>
<stop offset="1" stop-color="#27AE60"/>
</linearGradient>
<linearGradient id="paint1_linear_1_151" x1="35.7256" y1="0.0101261" x2="35.7256" y2="41.8564" gradientUnits="userSpaceOnUse">
<stop stop-color="#4A90E2"/>
<stop offset="1" stop-color="#0077C8"/>
</linearGradient>
</defs>
</svg>
